<?xml version="1.0" encoding="utf-8"?>
<!-- Generator: Adobe Illustrator 16.0.0, SVG Export Plug-In . SVG Version: 6.00 Build 0)  -->
<!DOCTYPE svg PUBLIC "-//W3C//DTD SVG 1.1//EN" "http://www.w3.org/Graphics/SVG/1.1/DTD/svg11.dtd">
<svg version="1.1" id="Layer_1" xmlns="http://www.w3.org/2000/svg" xmlns:xlink="http://www.w3.org/1999/xlink" x="0px" y="0px"
	 width="256px" height="256px" viewBox="0 0 256 256" enable-background="new 0 0 256 256" xml:space="preserve">
<rect fill="#F36F21" width="256" height="256"/>
<polygon fill-rule="evenodd" clip-rule="evenodd" fill="#D75A1F" points="158.789,52.237 0,210.771 0,256 149.834,256.167 
	202.667,203.334 193,63.189 "/>
<polygon fill-rule="evenodd" clip-rule="evenodd" fill="#D75A1F" points="44,256 97.21,203.904 69.5,188 71.5,98.988 97.21,74.167 
	54.236,52.237 0,106.903 0,256 "/>
<g>
	<g>
		<polygon fill="#FFFFFF" points="97.21,203.811 54,203.811 54,52.189 97.21,52.189 97.21,74.189 76,74.189 76,181.811 
			97.21,181.811 		"/>
	</g>
	<g>
		<polygon fill="#FFFFFF" points="202,203.811 158.789,203.811 158.789,181.811 180,181.811 180,74.189 158.789,74.189 
			158.789,52.189 202,52.189 		"/>
	</g>
</g>
</svg>
